<svg width="150" height="40" viewBox="0 0 150 40" fill="none" xmlns="http://www.w3.org/2000/svg">
  <rect width="40" height="40" rx="8" fill="#0D9488"/>
  <path d="M12 20L18 26L28 14" stroke="white" stroke-width="3" stroke-linecap="round" stroke-linejoin="round"/>
  <path d="M50 15V25H52.5V21.25H57.5V25H60V15H57.5V18.75H52.5V15H50Z" fill="#1E293B"/>
  <path d="M62.5 15V25H70V22.5H65V21.25H69V18.75H65V17.5H70V15H62.5Z" fill="#1E293B"/>
  <path d="M72.5 15V25H75V21.25L78.75 25H82.5L78.125 20.625L82.5 15H78.75L75 18.75V15H72.5Z" fill="#1E293B"/>
  <path d="M85 15V25H87.5V21.25H90C92.0711 21.25 93.75 19.5711 93.75 17.5C93.75 15.4289 92.0711 13.75 90 13.75H85V15ZM87.5 18.75V16.25H90C90.6904 16.25 91.25 16.8096 91.25 17.5C91.25 18.1904 90.6904 18.75 90 18.75H87.5Z" fill="#1E293B"/>
  <path d="M95 15V25H97.5V22.5H98.75L101.25 25H104.375L101.25 21.875C102.812 21.25 103.75 19.6875 103.75 17.5C103.75 15.4289 102.071 13.75 100 13.75H95V15ZM97.5 20V16.25H100C100.69 16.25 101.25 16.8096 101.25 17.5C101.25 18.1904 100.69 18.75 100 18.75H97.5V20Z" fill="#1E293B"/>
  <path d="M105 15V25H107.5V15H105Z" fill="#1E293B"/>
  <path d="M110 15V25H112.5V18.75L117.5 25H120V15H117.5V21.25L112.5 15H110Z" fill="#1E293B"/>
  <path d="M122.5 15V25H130V22.5H125V21.25H129V18.75H125V17.5H130V15H122.5Z" fill="#1E293B"/>
</svg>

